# xmcd
#
# Track frame offsets:
#	150
#	15834
#	34486
#	61296
#	90366
#	106462
#	135301
#
# Disc length: 2123
#
# Revision: 0
# Processed by: cddbd v1.5.2PL0 Copyright (c) Steve Scherf et al.
# Submitted via: Broken X Disk Manager 4.10.2355
#
DISCID=4b084907
DTITLE=Paul Rodgers - Live April, 21St 2011 O2 Apollo, Manchester CD1
DYEAR=2011
DGENRE=Rock
TTITLE0=Walk In My Shadow
TTITLE1=Wishing Well
TTITLE2=Mr. Big
TTITLE3=Feel Like Makin' Love
TTITLE4=Take Love
TTITLE5=Be My Friend
TTITLE6=Fire And Water
EXTD=
EXTT0=
EXTT1=
EXTT2=
EXTT3=
EXTT4=
EXTT5=
EXTT6=
PLAYORDER=
